<?xml version="1.0" encoding="UTF-8" standalone="no"?>
<!DOCTYPE svg PUBLIC "-//W3C//DTD SVG 1.1//EN"
 "http://www.w3.org/Graphics/SVG/1.1/DTD/svg11.dtd">
<!-- Generated by graphviz version 2.40.1 (20161225.0304)
 -->
<!-- Title: dependencies Pages: 1 -->
<svg width="3561pt" height="211pt"
 viewBox="0.00 0.00 3561.00 211.00" xmlns="http://www.w3.org/2000/svg" xmlns:xlink="http://www.w3.org/1999/xlink">
<g id="graph0" class="graph" transform="scale(1 1) rotate(0) translate(4 207)">
<title>dependencies</title>
<polygon fill="#ffffff" stroke="transparent" points="-4,4 -4,-207 3557,-207 3557,4 -4,4"/>
<text text-anchor="start" x="1755.5091" y="-42.4" font-family="sans-serif" font-weight="bold" font-size="14.00" fill="#000000">Legend</text>
<polygon fill="#ffffb3" stroke="transparent" points="1542.5,-10 1542.5,-30 1562.5,-30 1562.5,-10 1542.5,-10"/>
<text text-anchor="start" x="1566.129" y="-15.4" font-family="sans-serif" font-size="14.00" fill="#000000"> &#160;Declarations</text>
<polygon fill="#8dd3c7" stroke="transparent" points="1655.5,-10 1655.5,-30 1675.5,-30 1675.5,-10 1655.5,-10"/>
<text text-anchor="start" x="1679.2251" y="-15.4" font-family="sans-serif" font-size="14.00" fill="#000000"> &#160;Module</text>
<polygon fill="#80b1d3" stroke="transparent" points="1741.5,-10 1741.5,-30 1761.5,-30 1761.5,-10 1741.5,-10"/>
<text text-anchor="start" x="1765.2812" y="-15.4" font-family="sans-serif" font-size="14.00" fill="#000000"> &#160;Bootstrap</text>
<polygon fill="#fdb462" stroke="transparent" points="1838.5,-10 1838.5,-30 1858.5,-30 1858.5,-10 1838.5,-10"/>
<text text-anchor="start" x="1862.1732" y="-15.4" font-family="sans-serif" font-size="14.00" fill="#000000"> &#160;Providers</text>
<polygon fill="#fb8072" stroke="transparent" points="1934.5,-10 1934.5,-30 1954.5,-30 1954.5,-10 1934.5,-10"/>
<text text-anchor="start" x="1958.2258" y="-15.4" font-family="sans-serif" font-size="14.00" fill="#000000"> &#160;Exports</text>
<g id="clust1" class="cluster">
<title>cluster_TrialModule</title>
<polygon fill="none" stroke="#000000" stroke-dasharray="1,5" points="8,-70 8,-195 3545,-195 3545,-70 8,-70"/>
</g>
<g id="clust2" class="cluster">
<title>cluster_TrialModule_declarations</title>
<polygon fill="none" stroke="#000000" points="798,-78 798,-130 3537,-130 3537,-78 798,-78"/>
</g>
<g id="clust20" class="cluster">
<title>cluster_TrialModule_imports</title>
<polygon fill="none" stroke="#000000" points="526,-78 526,-130 790,-130 790,-78 526,-78"/>
</g>
<g id="clust23" class="cluster">
<title>cluster_TrialModule_providers</title>
<polygon fill="none" stroke="#000000" points="16,-78 16,-130 518,-130 518,-78 16,-78"/>
</g>
<!-- FilterComponent -->
<g id="node1" class="node">
<title>FilterComponent</title>
<polygon fill="#ffffb3" stroke="#000000" points="3528.6625,-122 3417.3375,-122 3417.3375,-86 3528.6625,-86 3528.6625,-122"/>
<text text-anchor="middle" x="3473" y="-99.8" font-family="Times,serif" font-size="14.00" fill="#000000">FilterComponent</text>
</g>
<!-- TrialModule -->
<g id="node18" class="node">
<title>TrialModule</title>
<polygon fill="#8dd3c7" stroke="#000000" points="1835.2591,-187 1832.2591,-191 1811.2591,-191 1808.2591,-187 1748.7409,-187 1748.7409,-151 1835.2591,-151 1835.2591,-187"/>
<text text-anchor="middle" x="1792" y="-164.8" font-family="Times,serif" font-size="14.00" fill="#000000">TrialModule</text>
</g>
<!-- FilterComponent&#45;&gt;TrialModule -->
<g id="edge1" class="edge">
<title>FilterComponent&#45;&gt;TrialModule</title>
<path fill="none" stroke="#000000" d="M3473,-122.1532C3473,-145.7566 3473,-184 3473,-184 3473,-184 1845.6695,-184 1845.6695,-184"/>
<polygon fill="#000000" stroke="#000000" points="1845.6695,-180.5001 1835.6695,-184 1845.6695,-187.5001 1845.6695,-180.5001"/>
</g>
<!-- FixedNavDirective -->
<g id="node2" class="node">
<title>FixedNavDirective</title>
<polygon fill="#ffffb3" stroke="#000000" points="3399.7921,-122 3276.2079,-122 3276.2079,-86 3399.7921,-86 3399.7921,-122"/>
<text text-anchor="middle" x="3338" y="-99.8" font-family="Times,serif" font-size="14.00" fill="#000000">FixedNavDirective</text>
</g>
<!-- FixedNavDirective&#45;&gt;TrialModule -->
<g id="edge2" class="edge">
<title>FixedNavDirective&#45;&gt;TrialModule</title>
<path fill="none" stroke="#000000" d="M3338,-122.2479C3338,-145.0179 3338,-181 3338,-181 3338,-181 1845.3696,-181 1845.3696,-181"/>
<polygon fill="#000000" stroke="#000000" points="1845.3696,-177.5001 1835.3696,-181 1845.3695,-184.5001 1845.3696,-177.5001"/>
</g>
<!-- FoodCardComponent -->
<g id="node3" class="node">
<title>FoodCardComponent</title>
<polygon fill="#ffffb3" stroke="#000000" points="3258.8272,-122 3121.1728,-122 3121.1728,-86 3258.8272,-86 3258.8272,-122"/>
<text text-anchor="middle" x="3190" y="-99.8" font-family="Times,serif" font-size="14.00" fill="#000000">FoodCardComponent</text>
</g>
<!-- FoodCardComponent&#45;&gt;TrialModule -->
<g id="edge3" class="edge">
<title>FoodCardComponent&#45;&gt;TrialModule</title>
<path fill="none" stroke="#000000" d="M3190,-122.2921C3190,-144.2057 3190,-178 3190,-178 3190,-178 1845.3724,-178 1845.3724,-178"/>
<polygon fill="#000000" stroke="#000000" points="1845.3724,-174.5001 1835.3724,-178 1845.3723,-181.5001 1845.3724,-174.5001"/>
</g>
<!-- FoodDetailsComponent -->
<g id="node4" class="node">
<title>FoodDetailsComponent</title>
<polygon fill="#ffffb3" stroke="#000000" points="3102.7674,-122 2953.2326,-122 2953.2326,-86 3102.7674,-86 3102.7674,-122"/>
<text text-anchor="middle" x="3028" y="-99.8" font-family="Times,serif" font-size="14.00" fill="#000000">FoodDetailsComponent</text>
</g>
<!-- FoodDetailsComponent&#45;&gt;TrialModule -->
<g id="edge4" class="edge">
<title>FoodDetailsComponent&#45;&gt;TrialModule</title>
<path fill="none" stroke="#000000" d="M3028,-122.0267C3028,-142.7672 3028,-174 3028,-174 3028,-174 1845.2652,-174 1845.2652,-174"/>
<polygon fill="#000000" stroke="#000000" points="1845.2652,-170.5001 1835.2652,-174 1845.2651,-177.5001 1845.2652,-170.5001"/>
</g>
<!-- InfoDialogComponent -->
<g id="node5" class="node">
<title>InfoDialogComponent</title>
<polygon fill="#ffffb3" stroke="#000000" points="2935.2562,-122 2792.7438,-122 2792.7438,-86 2935.2562,-86 2935.2562,-122"/>
<text text-anchor="middle" x="2864" y="-99.8" font-family="Times,serif" font-size="14.00" fill="#000000">InfoDialogComponent</text>
</g>
<!-- InfoDialogComponent&#45;&gt;TrialModule -->
<g id="edge5" class="edge">
<title>InfoDialogComponent&#45;&gt;TrialModule</title>
<path fill="none" stroke="#000000" d="M2864,-122.308C2864,-142.1455 2864,-171 2864,-171 2864,-171 1845.3514,-171 1845.3514,-171"/>
<polygon fill="#000000" stroke="#000000" points="1845.3514,-167.5001 1835.3514,-171 1845.3514,-174.5001 1845.3514,-167.5001"/>
</g>
<!-- ItemGridComponent -->
<g id="node6" class="node">
<title>ItemGridComponent</title>
<polygon fill="#ffffb3" stroke="#000000" points="2774.1471,-122 2641.8529,-122 2641.8529,-86 2774.1471,-86 2774.1471,-122"/>
<text text-anchor="middle" x="2708" y="-99.8" font-family="Times,serif" font-size="14.00" fill="#000000">ItemGridComponent</text>
</g>
<!-- ItemGridComponent&#45;&gt;TrialModule -->
<g id="edge6" class="edge">
<title>ItemGridComponent&#45;&gt;TrialModule</title>
<path fill="none" stroke="#000000" d="M2708,-122.1686C2708,-141.0898 2708,-168 2708,-168 2708,-168 1845.5644,-168 1845.5644,-168"/>
<polygon fill="#000000" stroke="#000000" points="1845.5644,-164.5001 1835.5644,-168 1845.5643,-171.5001 1845.5644,-164.5001"/>
</g>
<!-- ScoreDirective -->
<g id="node7" class="node">
<title>ScoreDirective</title>
<polygon fill="#ffffb3" stroke="#000000" points="2623.9552,-122 2524.0448,-122 2524.0448,-86 2623.9552,-86 2623.9552,-122"/>
<text text-anchor="middle" x="2574" y="-99.8" font-family="Times,serif" font-size="14.00" fill="#000000">ScoreDirective</text>
</g>
<!-- ScoreDirective&#45;&gt;TrialModule -->
<g id="edge7" class="edge">
<title>ScoreDirective&#45;&gt;TrialModule</title>
<path fill="none" stroke="#000000" d="M2574,-122.302C2574,-140.2699 2574,-165 2574,-165 2574,-165 1845.4381,-165 1845.4381,-165"/>
<polygon fill="#000000" stroke="#000000" points="1845.4381,-161.5001 1835.4381,-165 1845.4381,-168.5001 1845.4381,-161.5001"/>
</g>
<!-- ShoppingCartComponent -->
<g id="node8" class="node">
<title>ShoppingCartComponent</title>
<polygon fill="#ffffb3" stroke="#000000" points="2505.608,-122 2346.392,-122 2346.392,-86 2505.608,-86 2505.608,-122"/>
<text text-anchor="middle" x="2426" y="-99.8" font-family="Times,serif" font-size="14.00" fill="#000000">ShoppingCartComponent</text>
</g>
<!-- ShoppingCartComponent&#45;&gt;TrialModule -->
<g id="edge8" class="edge">
<title>ShoppingCartComponent&#45;&gt;TrialModule</title>
<path fill="none" stroke="#000000" d="M2426,-122.0352C2426,-138.7344 2426,-161 2426,-161 2426,-161 1845.5774,-161 1845.5774,-161"/>
<polygon fill="#000000" stroke="#000000" points="1845.5774,-157.5001 1835.5774,-161 1845.5774,-164.5001 1845.5774,-157.5001"/>
</g>
<!-- ShoppingMetricsComponent -->
<g id="node9" class="node">
<title>ShoppingMetricsComponent</title>
<polygon fill="#ffffb3" stroke="#000000" points="2328.766,-122 2151.234,-122 2151.234,-86 2328.766,-86 2328.766,-122"/>
<text text-anchor="middle" x="2240" y="-99.8" font-family="Times,serif" font-size="14.00" fill="#000000">ShoppingMetricsComponent</text>
</g>
<!-- ShoppingMetricsComponent&#45;&gt;TrialModule -->
<g id="edge9" class="edge">
<title>ShoppingMetricsComponent&#45;&gt;TrialModule</title>
<path fill="none" stroke="#000000" d="M2240,-122.2819C2240,-137.9478 2240,-158 2240,-158 2240,-158 1845.3632,-158 1845.3632,-158"/>
<polygon fill="#000000" stroke="#000000" points="1845.3632,-154.5001 1835.3632,-158 1845.3631,-161.5001 1845.3632,-154.5001"/>
</g>
<!-- SubjectSelectComponent -->
<g id="node10" class="node">
<title>SubjectSelectComponent</title>
<polygon fill="#ffffb3" stroke="#000000" points="2132.5337,-122 1975.4663,-122 1975.4663,-86 2132.5337,-86 2132.5337,-122"/>
<text text-anchor="middle" x="2054" y="-99.8" font-family="Times,serif" font-size="14.00" fill="#000000">SubjectSelectComponent</text>
</g>
<!-- SubjectSelectComponent&#45;&gt;TrialModule -->
<g id="edge10" class="edge">
<title>SubjectSelectComponent&#45;&gt;TrialModule</title>
<path fill="none" stroke="#000000" d="M2054,-122.1243C2054,-136.7832 2054,-155 2054,-155 2054,-155 1845.264,-155 1845.264,-155"/>
<polygon fill="#000000" stroke="#000000" points="1845.264,-151.5001 1835.264,-155 1845.2639,-158.5001 1845.264,-151.5001"/>
</g>
<!-- SwapDialogComponent -->
<g id="node11" class="node">
<title>SwapDialogComponent</title>
<polygon fill="#ffffb3" stroke="#000000" points="1957.0393,-122 1806.9607,-122 1806.9607,-86 1957.0393,-86 1957.0393,-122"/>
<text text-anchor="middle" x="1882" y="-99.8" font-family="Times,serif" font-size="14.00" fill="#000000">SwapDialogComponent</text>
</g>
<!-- SwapDialogComponent&#45;&gt;TrialModule -->
<g id="edge11" class="edge">
<title>SwapDialogComponent&#45;&gt;TrialModule</title>
<path fill="none" stroke="#000000" d="M1821.0551,-122.1061C1821.0551,-122.1061 1821.0551,-140.991 1821.0551,-140.991"/>
<polygon fill="#000000" stroke="#000000" points="1817.5551,-140.9909 1821.0551,-150.991 1824.5551,-140.991 1817.5551,-140.9909"/>
</g>
<!-- SwapOptDialogComponent -->
<g id="node12" class="node">
<title>SwapOptDialogComponent</title>
<polygon fill="#ffffb3" stroke="#000000" points="1788.5364,-122 1617.4636,-122 1617.4636,-86 1788.5364,-86 1788.5364,-122"/>
<text text-anchor="middle" x="1703" y="-99.8" font-family="Times,serif" font-size="14.00" fill="#000000">SwapOptDialogComponent</text>
</g>
<!-- SwapOptDialogComponent&#45;&gt;TrialModule -->
<g id="edge12" class="edge">
<title>SwapOptDialogComponent&#45;&gt;TrialModule</title>
<path fill="none" stroke="#000000" d="M1768.6943,-122.1061C1768.6943,-122.1061 1768.6943,-140.991 1768.6943,-140.991"/>
<polygon fill="#000000" stroke="#000000" points="1765.1943,-140.9909 1768.6943,-150.991 1772.1943,-140.991 1765.1943,-140.9909"/>
</g>
<!-- TreatmentSelectComponent -->
<g id="node13" class="node">
<title>TreatmentSelectComponent</title>
<polygon fill="#ffffb3" stroke="#000000" points="1599.5688,-122 1426.4312,-122 1426.4312,-86 1599.5688,-86 1599.5688,-122"/>
<text text-anchor="middle" x="1513" y="-99.8" font-family="Times,serif" font-size="14.00" fill="#000000">TreatmentSelectComponent</text>
</g>
<!-- TreatmentSelectComponent&#45;&gt;TrialModule -->
<g id="edge13" class="edge">
<title>TreatmentSelectComponent&#45;&gt;TrialModule</title>
<path fill="none" stroke="#000000" d="M1513,-122.1243C1513,-136.7832 1513,-155 1513,-155 1513,-155 1738.7124,-155 1738.7124,-155"/>
<polygon fill="#000000" stroke="#000000" points="1738.7124,-158.5001 1748.7124,-155 1738.7123,-151.5001 1738.7124,-158.5001"/>
</g>
<!-- TrialComponent -->
<g id="node14" class="node">
<title>TrialComponent</title>
<polygon fill="#ffffb3" stroke="#000000" points="1408.0424,-122 1299.9576,-122 1299.9576,-86 1408.0424,-86 1408.0424,-122"/>
<text text-anchor="middle" x="1354" y="-99.8" font-family="Times,serif" font-size="14.00" fill="#000000">TrialComponent</text>
</g>
<!-- TrialComponent&#45;&gt;TrialModule -->
<g id="edge14" class="edge">
<title>TrialComponent&#45;&gt;TrialModule</title>
<path fill="none" stroke="#000000" d="M1354,-122.2819C1354,-137.9478 1354,-158 1354,-158 1354,-158 1738.4016,-158 1738.4016,-158"/>
<polygon fill="#000000" stroke="#000000" points="1738.4016,-161.5001 1748.4016,-158 1738.4016,-154.5001 1738.4016,-161.5001"/>
</g>
<!-- TrialConfigComponent -->
<g id="node15" class="node">
<title>TrialConfigComponent</title>
<polygon fill="#ffffb3" stroke="#000000" points="1281.9298,-122 1134.0702,-122 1134.0702,-86 1281.9298,-86 1281.9298,-122"/>
<text text-anchor="middle" x="1208" y="-99.8" font-family="Times,serif" font-size="14.00" fill="#000000">TrialConfigComponent</text>
</g>
<!-- TrialConfigComponent&#45;&gt;TrialModule -->
<g id="edge15" class="edge">
<title>TrialConfigComponent&#45;&gt;TrialModule</title>
<path fill="none" stroke="#000000" d="M1208,-122.0352C1208,-138.7344 1208,-161 1208,-161 1208,-161 1738.5822,-161 1738.5822,-161"/>
<polygon fill="#000000" stroke="#000000" points="1738.5822,-164.5001 1748.5822,-161 1738.5822,-157.5001 1738.5822,-164.5001"/>
</g>
<!-- TrialLandingComponent -->
<g id="node16" class="node">
<title>TrialLandingComponent</title>
<polygon fill="#ffffb3" stroke="#000000" points="1116.6993,-122 961.3007,-122 961.3007,-86 1116.6993,-86 1116.6993,-122"/>
<text text-anchor="middle" x="1039" y="-99.8" font-family="Times,serif" font-size="14.00" fill="#000000">TrialLandingComponent</text>
</g>
<!-- TrialLandingComponent&#45;&gt;TrialModule -->
<g id="edge16" class="edge">
<title>TrialLandingComponent&#45;&gt;TrialModule</title>
<path fill="none" stroke="#000000" d="M1039,-122.302C1039,-140.2699 1039,-165 1039,-165 1039,-165 1738.5362,-165 1738.5362,-165"/>
<polygon fill="#000000" stroke="#000000" points="1738.5363,-168.5001 1748.5362,-165 1738.5362,-161.5001 1738.5363,-168.5001"/>
</g>
<!-- TrialShopComponent -->
<g id="node17" class="node">
<title>TrialShopComponent</title>
<polygon fill="#ffffb3" stroke="#000000" points="943.8244,-122 806.1756,-122 806.1756,-86 943.8244,-86 943.8244,-122"/>
<text text-anchor="middle" x="875" y="-99.8" font-family="Times,serif" font-size="14.00" fill="#000000">TrialShopComponent</text>
</g>
<!-- TrialShopComponent&#45;&gt;TrialModule -->
<g id="edge17" class="edge">
<title>TrialShopComponent&#45;&gt;TrialModule</title>
<path fill="none" stroke="#000000" d="M875,-122.1686C875,-141.0898 875,-168 875,-168 875,-168 1738.6951,-168 1738.6951,-168"/>
<polygon fill="#000000" stroke="#000000" points="1738.6951,-171.5001 1748.6951,-168 1738.6951,-164.5001 1738.6951,-171.5001"/>
</g>
<!-- SharedModule -->
<g id="node19" class="node">
<title>SharedModule</title>
<polygon fill="#8dd3c7" stroke="#000000" points="782.4231,-122 779.4231,-126 758.4231,-126 755.4231,-122 683.5769,-122 683.5769,-86 782.4231,-86 782.4231,-122"/>
<text text-anchor="middle" x="733" y="-99.8" font-family="Times,serif" font-size="14.00" fill="#000000">SharedModule</text>
</g>
<!-- SharedModule&#45;&gt;TrialModule -->
<g id="edge18" class="edge">
<title>SharedModule&#45;&gt;TrialModule</title>
<path fill="none" stroke="#000000" d="M733,-122.308C733,-142.1455 733,-171 733,-171 733,-171 1738.5116,-171 1738.5116,-171"/>
<polygon fill="#000000" stroke="#000000" points="1738.5117,-174.5001 1748.5116,-171 1738.5116,-167.5001 1738.5117,-174.5001"/>
</g>
<!-- TrialRoutingModule -->
<g id="node20" class="node">
<title>TrialRoutingModule</title>
<polygon fill="#8dd3c7" stroke="#000000" points="665.8767,-122 662.8767,-126 641.8767,-126 638.8767,-122 534.1233,-122 534.1233,-86 665.8767,-86 665.8767,-122"/>
<text text-anchor="middle" x="600" y="-99.8" font-family="Times,serif" font-size="14.00" fill="#000000">TrialRoutingModule</text>
</g>
<!-- TrialRoutingModule&#45;&gt;TrialModule -->
<g id="edge19" class="edge">
<title>TrialRoutingModule&#45;&gt;TrialModule</title>
<path fill="none" stroke="#000000" d="M600,-122.0267C600,-142.7672 600,-174 600,-174 600,-174 1738.5178,-174 1738.5178,-174"/>
<polygon fill="#000000" stroke="#000000" points="1738.5178,-177.5001 1748.5178,-174 1738.5178,-170.5001 1738.5178,-177.5001"/>
</g>
<!-- FilterService -->
<g id="node21" class="node">
<title>FilterService</title>
<ellipse fill="#fdb462" stroke="#000000" cx="449" cy="-104" rx="60.8255" ry="18"/>
<text text-anchor="middle" x="449" y="-99.8" font-family="Times,serif" font-size="14.00" fill="#000000">FilterService</text>
</g>
<!-- FilterService&#45;&gt;TrialModule -->
<g id="edge20" class="edge">
<title>FilterService&#45;&gt;TrialModule</title>
<path fill="none" stroke="#000000" d="M449,-122.2921C449,-144.2057 449,-178 449,-178 449,-178 1738.459,-178 1738.459,-178"/>
<polygon fill="#000000" stroke="#000000" points="1738.4591,-181.5001 1748.459,-178 1738.459,-174.5001 1738.4591,-181.5001"/>
</g>
<!-- ProductService -->
<g id="node22" class="node">
<title>ProductService</title>
<ellipse fill="#fdb462" stroke="#000000" cx="300" cy="-104" rx="70.0616" ry="18"/>
<text text-anchor="middle" x="300" y="-99.8" font-family="Times,serif" font-size="14.00" fill="#000000">ProductService</text>
</g>
<!-- ProductService&#45;&gt;TrialModule -->
<g id="edge21" class="edge">
<title>ProductService&#45;&gt;TrialModule</title>
<path fill="none" stroke="#000000" d="M300,-122.2479C300,-145.0179 300,-181 300,-181 300,-181 1738.5567,-181 1738.5567,-181"/>
<polygon fill="#000000" stroke="#000000" points="1738.5567,-184.5001 1748.5567,-181 1738.5567,-177.5001 1738.5567,-184.5001"/>
</g>
<!-- ShoppingCartService -->
<g id="node23" class="node">
<title>ShoppingCartService</title>
<ellipse fill="#fdb462" stroke="#000000" cx="118" cy="-104" rx="93.7804" ry="18"/>
<text text-anchor="middle" x="118" y="-99.8" font-family="Times,serif" font-size="14.00" fill="#000000">ShoppingCartService</text>
</g>
<!-- ShoppingCartService&#45;&gt;TrialModule -->
<g id="edge22" class="edge">
<title>ShoppingCartService&#45;&gt;TrialModule</title>
<path fill="none" stroke="#000000" d="M118,-122.1532C118,-145.7566 118,-184 118,-184 118,-184 1738.5124,-184 1738.5124,-184"/>
<polygon fill="#000000" stroke="#000000" points="1738.5124,-187.5001 1748.5124,-184 1738.5123,-180.5001 1738.5124,-187.5001"/>
</g>
</g>
</svg>
