<?xml version="1.0" encoding="UTF-8" standalone="no"?>
<!DOCTYPE svg PUBLIC "-//W3C//DTD SVG 1.1//EN"
 "http://www.w3.org/Graphics/SVG/1.1/DTD/svg11.dtd">
<!-- Generated by graphviz version 2.40.1 (20161225.0304)
 -->
<!-- Title: dependencies Pages: 1 -->
<svg width="951pt" height="284pt"
 viewBox="0.00 0.00 951.00 284.00" xmlns="http://www.w3.org/2000/svg" xmlns:xlink="http://www.w3.org/1999/xlink">
<g id="graph0" class="graph" transform="scale(1 1) rotate(0) translate(4 280)">
<title>dependencies</title>
<polygon fill="#ffffff" stroke="transparent" points="-4,4 -4,-280 947,-280 947,4 -4,4"/>
<text text-anchor="start" x="450.5091" y="-42.4" font-family="sans-serif" font-weight="bold" font-size="14.00" fill="#000000">Legend</text>
<polygon fill="#ffffb3" stroke="transparent" points="237.5,-10 237.5,-30 257.5,-30 257.5,-10 237.5,-10"/>
<text text-anchor="start" x="261.129" y="-15.4" font-family="sans-serif" font-size="14.00" fill="#000000"> &#160;Declarations</text>
<polygon fill="#8dd3c7" stroke="transparent" points="350.5,-10 350.5,-30 370.5,-30 370.5,-10 350.5,-10"/>
<text text-anchor="start" x="374.2251" y="-15.4" font-family="sans-serif" font-size="14.00" fill="#000000"> &#160;Module</text>
<polygon fill="#80b1d3" stroke="transparent" points="436.5,-10 436.5,-30 456.5,-30 456.5,-10 436.5,-10"/>
<text text-anchor="start" x="460.2812" y="-15.4" font-family="sans-serif" font-size="14.00" fill="#000000"> &#160;Bootstrap</text>
<polygon fill="#fdb462" stroke="transparent" points="533.5,-10 533.5,-30 553.5,-30 553.5,-10 533.5,-10"/>
<text text-anchor="start" x="557.1732" y="-15.4" font-family="sans-serif" font-size="14.00" fill="#000000"> &#160;Providers</text>
<polygon fill="#fb8072" stroke="transparent" points="629.5,-10 629.5,-30 649.5,-30 649.5,-10 629.5,-10"/>
<text text-anchor="start" x="653.2258" y="-15.4" font-family="sans-serif" font-size="14.00" fill="#000000"> &#160;Exports</text>
<g id="clust1" class="cluster">
<title>cluster_AppModule</title>
<polygon fill="none" stroke="#000000" stroke-dasharray="1,5" points="8,-70 8,-268 935,-268 935,-70 8,-70"/>
</g>
<g id="clust2" class="cluster">
<title>cluster_AppModule_declarations</title>
<polygon fill="none" stroke="#000000" points="507,-78 507,-130 927,-130 927,-78 507,-78"/>
</g>
<g id="clust6" class="cluster">
<title>cluster_AppModule_imports</title>
<polygon fill="none" stroke="#000000" points="16,-78 16,-130 499,-130 499,-78 16,-78"/>
</g>
<g id="clust8" class="cluster">
<title>cluster_AppModule_bootstrap</title>
<polygon fill="none" stroke="#000000" points="380,-208 380,-260 504,-260 504,-208 380,-208"/>
</g>
<!-- AppComponent -->
<g id="node1" class="node">
<title>AppComponent</title>
<polygon fill="#ffffb3" stroke="#000000" points="918.9399,-122 813.0601,-122 813.0601,-86 918.9399,-86 918.9399,-122"/>
<text text-anchor="middle" x="866" y="-99.8" font-family="Times,serif" font-size="14.00" fill="#000000">AppComponent</text>
</g>
<!-- AppModule -->
<g id="node4" class="node">
<title>AppModule</title>
<polygon fill="#8dd3c7" stroke="#000000" points="483.6571,-187 480.6571,-191 459.6571,-191 456.6571,-187 400.3429,-187 400.3429,-151 483.6571,-151 483.6571,-187"/>
<text text-anchor="middle" x="442" y="-164.8" font-family="Times,serif" font-size="14.00" fill="#000000">AppModule</text>
</g>
<!-- AppComponent&#45;&gt;AppModule -->
<g id="edge1" class="edge">
<title>AppComponent&#45;&gt;AppModule</title>
<path fill="none" stroke="#000000" d="M866,-122.2921C866,-144.2057 866,-178 866,-178 866,-178 493.8151,-178 493.8151,-178"/>
<polygon fill="#000000" stroke="#000000" points="493.8152,-174.5001 483.8151,-178 493.8151,-181.5001 493.8152,-174.5001"/>
</g>
<!-- LandingComponent -->
<g id="node2" class="node">
<title>LandingComponent</title>
<polygon fill="#ffffb3" stroke="#000000" points="794.9902,-122 667.0098,-122 667.0098,-86 794.9902,-86 794.9902,-122"/>
<text text-anchor="middle" x="731" y="-99.8" font-family="Times,serif" font-size="14.00" fill="#000000">LandingComponent</text>
</g>
<!-- LandingComponent&#45;&gt;AppModule -->
<g id="edge2" class="edge">
<title>LandingComponent&#45;&gt;AppModule</title>
<path fill="none" stroke="#000000" d="M731,-122.1061C731,-141.3391 731,-169 731,-169 731,-169 493.7144,-169 493.7144,-169"/>
<polygon fill="#000000" stroke="#000000" points="493.7145,-165.5001 483.7144,-169 493.7144,-172.5001 493.7145,-165.5001"/>
</g>
<!-- NotfoundComponent -->
<g id="node3" class="node">
<title>NotfoundComponent</title>
<polygon fill="#ffffb3" stroke="#000000" points="649.4902,-122 514.5098,-122 514.5098,-86 649.4902,-86 649.4902,-122"/>
<text text-anchor="middle" x="582" y="-99.8" font-family="Times,serif" font-size="14.00" fill="#000000">NotfoundComponent</text>
</g>
<!-- NotfoundComponent&#45;&gt;AppModule -->
<g id="edge3" class="edge">
<title>NotfoundComponent&#45;&gt;AppModule</title>
<path fill="none" stroke="#000000" d="M582,-122.027C582,-138.3976 582,-160 582,-160 582,-160 494.0046,-160 494.0046,-160"/>
<polygon fill="#000000" stroke="#000000" points="494.0047,-156.5001 484.0046,-160 494.0046,-163.5001 494.0047,-156.5001"/>
</g>
<!-- AppComponent  -->
<g id="node9" class="node">
<title>AppComponent </title>
<polygon fill="#80b1d3" stroke="#000000" points="496.439,-252 387.561,-252 387.561,-216 496.439,-216 496.439,-252"/>
<text text-anchor="middle" x="442" y="-229.8" font-family="Times,serif" font-size="14.00" fill="#000000">AppComponent </text>
</g>
<!-- AppModule&#45;&gt;AppComponent  -->
<g id="edge8" class="edge">
<title>AppModule&#45;&gt;AppComponent </title>
<path fill="none" stroke="#000000" stroke-dasharray="1,5" d="M442,-187.1061C442,-187.1061 442,-205.991 442,-205.991"/>
<polygon fill="#000000" stroke="#000000" points="438.5001,-205.9909 442,-215.991 445.5001,-205.991 438.5001,-205.9909"/>
</g>
<!-- AdminModule -->
<g id="node5" class="node">
<title>AdminModule</title>
<polygon fill="#8dd3c7" stroke="#000000" points="491.4386,-122 488.4386,-126 467.4386,-126 464.4386,-122 392.5614,-122 392.5614,-86 491.4386,-86 491.4386,-122"/>
<text text-anchor="middle" x="442" y="-99.8" font-family="Times,serif" font-size="14.00" fill="#000000">AdminModule</text>
</g>
<!-- AdminModule&#45;&gt;AppModule -->
<g id="edge4" class="edge">
<title>AdminModule&#45;&gt;AppModule</title>
<path fill="none" stroke="#000000" d="M442,-122.1061C442,-122.1061 442,-140.991 442,-140.991"/>
<polygon fill="#000000" stroke="#000000" points="438.5001,-140.9909 442,-150.991 445.5001,-140.991 438.5001,-140.9909"/>
</g>
<!-- AppRoutingModule -->
<g id="node6" class="node">
<title>AppRoutingModule</title>
<polygon fill="#8dd3c7" stroke="#000000" points="374.2744,-122 371.2744,-126 350.2744,-126 347.2744,-122 245.7256,-122 245.7256,-86 374.2744,-86 374.2744,-122"/>
<text text-anchor="middle" x="310" y="-99.8" font-family="Times,serif" font-size="14.00" fill="#000000">AppRoutingModule</text>
</g>
<!-- AppRoutingModule&#45;&gt;AppModule -->
<g id="edge5" class="edge">
<title>AppRoutingModule&#45;&gt;AppModule</title>
<path fill="none" stroke="#000000" d="M310,-122.027C310,-138.3976 310,-160 310,-160 310,-160 390.2344,-160 390.2344,-160"/>
<polygon fill="#000000" stroke="#000000" points="390.2344,-163.5001 400.2344,-160 390.2343,-156.5001 390.2344,-163.5001"/>
</g>
<!-- SharedModule -->
<g id="node7" class="node">
<title>SharedModule</title>
<polygon fill="#8dd3c7" stroke="#000000" points="227.4231,-122 224.4231,-126 203.4231,-126 200.4231,-122 128.5769,-122 128.5769,-86 227.4231,-86 227.4231,-122"/>
<text text-anchor="middle" x="178" y="-99.8" font-family="Times,serif" font-size="14.00" fill="#000000">SharedModule</text>
</g>
<!-- SharedModule&#45;&gt;AppModule -->
<g id="edge6" class="edge">
<title>SharedModule&#45;&gt;AppModule</title>
<path fill="none" stroke="#000000" d="M178,-122.1061C178,-141.3391 178,-169 178,-169 178,-169 390.1684,-169 390.1684,-169"/>
<polygon fill="#000000" stroke="#000000" points="390.1685,-172.5001 400.1684,-169 390.1684,-165.5001 390.1685,-172.5001"/>
</g>
<!-- TrialModule -->
<g id="node8" class="node">
<title>TrialModule</title>
<polygon fill="#8dd3c7" stroke="#000000" points="110.2591,-122 107.2591,-126 86.2591,-126 83.2591,-122 23.7409,-122 23.7409,-86 110.2591,-86 110.2591,-122"/>
<text text-anchor="middle" x="67" y="-99.8" font-family="Times,serif" font-size="14.00" fill="#000000">TrialModule</text>
</g>
<!-- TrialModule&#45;&gt;AppModule -->
<g id="edge7" class="edge">
<title>TrialModule&#45;&gt;AppModule</title>
<path fill="none" stroke="#000000" d="M67,-122.2921C67,-144.2057 67,-178 67,-178 67,-178 390.0743,-178 390.0743,-178"/>
<polygon fill="#000000" stroke="#000000" points="390.0743,-181.5001 400.0743,-178 390.0743,-174.5001 390.0743,-181.5001"/>
</g>
</g>
</svg>
