<?xml version="1.0" encoding="UTF-8" standalone="no"?>
<!DOCTYPE svg PUBLIC "-//W3C//DTD SVG 1.1//EN"
 "http://www.w3.org/Graphics/SVG/1.1/DTD/svg11.dtd">
<!-- Generated by graphviz version 2.40.1 (20161225.0304)
 -->
<!-- Title: dependencies Pages: 1 -->
<svg width="504pt" height="284pt"
 viewBox="0.00 0.00 504.00 284.00" xmlns="http://www.w3.org/2000/svg" xmlns:xlink="http://www.w3.org/1999/xlink">
<g id="graph0" class="graph" transform="scale(1 1) rotate(0) translate(4 280)">
<title>dependencies</title>
<polygon fill="#ffffff" stroke="transparent" points="-4,4 -4,-280 500,-280 500,4 -4,4"/>
<text text-anchor="start" x="227.0091" y="-42.4" font-family="sans-serif" font-weight="bold" font-size="14.00" fill="#000000">Legend</text>
<polygon fill="#ffffb3" stroke="transparent" points="14,-10 14,-30 34,-30 34,-10 14,-10"/>
<text text-anchor="start" x="37.629" y="-15.4" font-family="sans-serif" font-size="14.00" fill="#000000"> &#160;Declarations</text>
<polygon fill="#8dd3c7" stroke="transparent" points="127,-10 127,-30 147,-30 147,-10 127,-10"/>
<text text-anchor="start" x="150.7251" y="-15.4" font-family="sans-serif" font-size="14.00" fill="#000000"> &#160;Module</text>
<polygon fill="#80b1d3" stroke="transparent" points="213,-10 213,-30 233,-30 233,-10 213,-10"/>
<text text-anchor="start" x="236.7812" y="-15.4" font-family="sans-serif" font-size="14.00" fill="#000000"> &#160;Bootstrap</text>
<polygon fill="#fdb462" stroke="transparent" points="310,-10 310,-30 330,-30 330,-10 310,-10"/>
<text text-anchor="start" x="333.6732" y="-15.4" font-family="sans-serif" font-size="14.00" fill="#000000"> &#160;Providers</text>
<polygon fill="#fb8072" stroke="transparent" points="406,-10 406,-30 426,-30 426,-10 406,-10"/>
<text text-anchor="start" x="429.7258" y="-15.4" font-family="sans-serif" font-size="14.00" fill="#000000"> &#160;Exports</text>
<g id="clust1" class="cluster">
<title>cluster_SharedModule</title>
<polygon fill="none" stroke="#000000" stroke-dasharray="1,5" points="9,-70 9,-268 487,-268 487,-70 9,-70"/>
</g>
<g id="clust2" class="cluster">
<title>cluster_SharedModule_declarations</title>
<polygon fill="none" stroke="#000000" points="169,-78 169,-130 479,-130 479,-78 169,-78"/>
</g>
<g id="clust6" class="cluster">
<title>cluster_SharedModule_exports</title>
<polygon fill="none" stroke="#000000" points="89,-208 89,-260 407,-260 407,-208 89,-208"/>
</g>
<g id="clust8" class="cluster">
<title>cluster_SharedModule_providers</title>
<polygon fill="none" stroke="#000000" points="17,-78 17,-130 161,-130 161,-78 17,-78"/>
</g>
<!-- HeaderComponent -->
<g id="node1" class="node">
<title>HeaderComponent</title>
<polygon fill="#ffffb3" stroke="#000000" points="470.7437,-122 349.2563,-122 349.2563,-86 470.7437,-86 470.7437,-122"/>
<text text-anchor="middle" x="410" y="-99.8" font-family="Times,serif" font-size="14.00" fill="#000000">HeaderComponent</text>
</g>
<!-- SharedModule -->
<g id="node3" class="node">
<title>SharedModule</title>
<polygon fill="#8dd3c7" stroke="#000000" points="303.4231,-187 300.4231,-191 279.4231,-191 276.4231,-187 204.5769,-187 204.5769,-151 303.4231,-151 303.4231,-187"/>
<text text-anchor="middle" x="254" y="-164.8" font-family="Times,serif" font-size="14.00" fill="#000000">SharedModule</text>
</g>
<!-- HeaderComponent&#45;&gt;SharedModule -->
<g id="edge1" class="edge">
<title>HeaderComponent&#45;&gt;SharedModule</title>
<path fill="none" stroke="#000000" d="M373.875,-122.1061C373.875,-141.3391 373.875,-169 373.875,-169 373.875,-169 313.4498,-169 313.4498,-169"/>
<polygon fill="#000000" stroke="#000000" points="313.4499,-165.5001 303.4498,-169 313.4498,-172.5001 313.4499,-165.5001"/>
</g>
<!-- ImageDialogComponent -->
<g id="node2" class="node">
<title>ImageDialogComponent</title>
<polygon fill="#ffffb3" stroke="#000000" points="331.4158,-122 176.5842,-122 176.5842,-86 331.4158,-86 331.4158,-122"/>
<text text-anchor="middle" x="254" y="-99.8" font-family="Times,serif" font-size="14.00" fill="#000000">ImageDialogComponent</text>
</g>
<!-- ImageDialogComponent&#45;&gt;SharedModule -->
<g id="edge2" class="edge">
<title>ImageDialogComponent&#45;&gt;SharedModule</title>
<path fill="none" stroke="#000000" d="M254,-122.1061C254,-122.1061 254,-140.991 254,-140.991"/>
<polygon fill="#000000" stroke="#000000" points="250.5001,-140.9909 254,-150.991 257.5001,-140.991 250.5001,-140.9909"/>
</g>
<!-- HeaderComponent  -->
<g id="node4" class="node">
<title>HeaderComponent </title>
<polygon fill="#fb8072" stroke="#000000" points="398.7436,-252 273.2564,-252 273.2564,-216 398.7436,-216 398.7436,-252"/>
<text text-anchor="middle" x="336" y="-229.8" font-family="Times,serif" font-size="14.00" fill="#000000">HeaderComponent </text>
</g>
<!-- SharedModule&#45;&gt;HeaderComponent  -->
<g id="edge3" class="edge">
<title>SharedModule&#45;&gt;HeaderComponent </title>
<path fill="none" stroke="#000000" stroke-dasharray="5,2" d="M288.2947,-187.1061C288.2947,-187.1061 288.2947,-205.991 288.2947,-205.991"/>
<polygon fill="#000000" stroke="#000000" points="284.7948,-205.9909 288.2947,-215.991 291.7948,-205.991 284.7948,-205.9909"/>
</g>
<!-- ImageDialogComponent  -->
<g id="node5" class="node">
<title>ImageDialogComponent </title>
<polygon fill="#fb8072" stroke="#000000" points="254.9152,-252 97.0848,-252 97.0848,-216 254.9152,-216 254.9152,-252"/>
<text text-anchor="middle" x="176" y="-229.8" font-family="Times,serif" font-size="14.00" fill="#000000">ImageDialogComponent </text>
</g>
<!-- SharedModule&#45;&gt;ImageDialogComponent  -->
<g id="edge4" class="edge">
<title>SharedModule&#45;&gt;ImageDialogComponent </title>
<path fill="none" stroke="#000000" stroke-dasharray="5,2" d="M229.8733,-187.1061C229.8733,-187.1061 229.8733,-205.991 229.8733,-205.991"/>
<polygon fill="#000000" stroke="#000000" points="226.3733,-205.9909 229.8733,-215.991 233.3733,-205.991 226.3733,-205.9909"/>
</g>
<!-- ImageService -->
<g id="node6" class="node">
<title>ImageService</title>
<ellipse fill="#fdb462" stroke="#000000" cx="89" cy="-104" rx="64.2417" ry="18"/>
<text text-anchor="middle" x="89" y="-99.8" font-family="Times,serif" font-size="14.00" fill="#000000">ImageService</text>
</g>
<!-- ImageService&#45;&gt;SharedModule -->
<g id="edge5" class="edge">
<title>ImageService&#45;&gt;SharedModule</title>
<path fill="none" stroke="#000000" d="M125.0816,-119.0757C125.0816,-138.2773 125.0816,-169 125.0816,-169 125.0816,-169 194.5255,-169 194.5255,-169"/>
<polygon fill="#000000" stroke="#000000" points="194.5255,-172.5001 204.5255,-169 194.5254,-165.5001 194.5255,-172.5001"/>
</g>
</g>
</svg>
