<?xml version="1.0" encoding="UTF-8" standalone="no"?>
<!DOCTYPE svg PUBLIC "-//W3C//DTD SVG 1.1//EN"
 "http://www.w3.org/Graphics/SVG/1.1/DTD/svg11.dtd">
<!-- Generated by graphviz version 2.40.1 (20161225.0304)
 -->
<!-- Title: dependencies Pages: 1 -->
<svg width="3159pt" height="211pt"
 viewBox="0.00 0.00 3159.00 211.00" xmlns="http://www.w3.org/2000/svg" xmlns:xlink="http://www.w3.org/1999/xlink">
<g id="graph0" class="graph" transform="scale(1 1) rotate(0) translate(4 207)">
<title>dependencies</title>
<polygon fill="#ffffff" stroke="transparent" points="-4,4 -4,-207 3155,-207 3155,4 -4,4"/>
<text text-anchor="start" x="1554.5091" y="-42.4" font-family="sans-serif" font-weight="bold" font-size="14.00" fill="#000000">Legend</text>
<polygon fill="#ffffb3" stroke="transparent" points="1341.5,-10 1341.5,-30 1361.5,-30 1361.5,-10 1341.5,-10"/>
<text text-anchor="start" x="1365.129" y="-15.4" font-family="sans-serif" font-size="14.00" fill="#000000"> &#160;Declarations</text>
<polygon fill="#8dd3c7" stroke="transparent" points="1454.5,-10 1454.5,-30 1474.5,-30 1474.5,-10 1454.5,-10"/>
<text text-anchor="start" x="1478.2251" y="-15.4" font-family="sans-serif" font-size="14.00" fill="#000000"> &#160;Module</text>
<polygon fill="#80b1d3" stroke="transparent" points="1540.5,-10 1540.5,-30 1560.5,-30 1560.5,-10 1540.5,-10"/>
<text text-anchor="start" x="1564.2812" y="-15.4" font-family="sans-serif" font-size="14.00" fill="#000000"> &#160;Bootstrap</text>
<polygon fill="#fdb462" stroke="transparent" points="1637.5,-10 1637.5,-30 1657.5,-30 1657.5,-10 1637.5,-10"/>
<text text-anchor="start" x="1661.1732" y="-15.4" font-family="sans-serif" font-size="14.00" fill="#000000"> &#160;Providers</text>
<polygon fill="#fb8072" stroke="transparent" points="1733.5,-10 1733.5,-30 1753.5,-30 1753.5,-10 1733.5,-10"/>
<text text-anchor="start" x="1757.2258" y="-15.4" font-family="sans-serif" font-size="14.00" fill="#000000"> &#160;Exports</text>
<g id="clust1" class="cluster">
<title>cluster_AdminModule</title>
<polygon fill="none" stroke="#000000" stroke-dasharray="1,5" points="8,-70 8,-195 3143,-195 3143,-70 8,-70"/>
</g>
<g id="clust2" class="cluster">
<title>cluster_AdminModule_declarations</title>
<polygon fill="none" stroke="#000000" points="457,-78 457,-130 3135,-130 3135,-78 457,-78"/>
</g>
<g id="clust18" class="cluster">
<title>cluster_AdminModule_imports</title>
<polygon fill="none" stroke="#000000" points="289,-78 289,-130 449,-130 449,-78 289,-78"/>
</g>
<g id="clust21" class="cluster">
<title>cluster_AdminModule_providers</title>
<polygon fill="none" stroke="#000000" points="16,-78 16,-130 281,-130 281,-78 16,-78"/>
</g>
<!-- AdminComponent -->
<g id="node1" class="node">
<title>AdminComponent</title>
<polygon fill="#ffffb3" stroke="#000000" points="3127.2204,-122 3006.7796,-122 3006.7796,-86 3127.2204,-86 3127.2204,-122"/>
<text text-anchor="middle" x="3067" y="-99.8" font-family="Times,serif" font-size="14.00" fill="#000000">AdminComponent</text>
</g>
<!-- AdminModule -->
<g id="node16" class="node">
<title>AdminModule</title>
<polygon fill="#8dd3c7" stroke="#000000" points="1542.4386,-187 1539.4386,-191 1518.4386,-191 1515.4386,-187 1443.5614,-187 1443.5614,-151 1542.4386,-151 1542.4386,-187"/>
<text text-anchor="middle" x="1493" y="-164.8" font-family="Times,serif" font-size="14.00" fill="#000000">AdminModule</text>
</g>
<!-- AdminComponent&#45;&gt;AdminModule -->
<g id="edge1" class="edge">
<title>AdminComponent&#45;&gt;AdminModule</title>
<path fill="none" stroke="#000000" d="M3067,-122.3228C3067,-145.6602 3067,-183 3067,-183 3067,-183 1552.2686,-183 1552.2686,-183"/>
<polygon fill="#000000" stroke="#000000" points="1552.2687,-179.5001 1542.2686,-183 1552.2686,-186.5001 1552.2687,-179.5001"/>
</g>
<!-- AdminHeaderComponent -->
<g id="node2" class="node">
<title>AdminHeaderComponent</title>
<polygon fill="#ffffb3" stroke="#000000" points="2989.1316,-122 2828.8684,-122 2828.8684,-86 2989.1316,-86 2989.1316,-122"/>
<text text-anchor="middle" x="2909" y="-99.8" font-family="Times,serif" font-size="14.00" fill="#000000">AdminHeaderComponent</text>
</g>
<!-- AdminHeaderComponent&#45;&gt;AdminModule -->
<g id="edge2" class="edge">
<title>AdminHeaderComponent&#45;&gt;AdminModule</title>
<path fill="none" stroke="#000000" d="M2909,-122.1554C2909,-144.3519 2909,-179 2909,-179 2909,-179 1552.5659,-179 1552.5659,-179"/>
<polygon fill="#000000" stroke="#000000" points="1552.566,-175.5001 1542.5659,-179 1552.5659,-182.5001 1552.566,-175.5001"/>
</g>
<!-- AdminLandingComponent -->
<g id="node3" class="node">
<title>AdminLandingComponent</title>
<polygon fill="#ffffb3" stroke="#000000" points="2810.378,-122 2643.622,-122 2643.622,-86 2810.378,-86 2810.378,-122"/>
<text text-anchor="middle" x="2727" y="-99.8" font-family="Times,serif" font-size="14.00" fill="#000000">AdminLandingComponent</text>
</g>
<!-- AdminLandingComponent&#45;&gt;AdminModule -->
<g id="edge3" class="edge">
<title>AdminLandingComponent&#45;&gt;AdminModule</title>
<path fill="none" stroke="#000000" d="M2727,-122.2843C2727,-143.3211 2727,-175 2727,-175 2727,-175 1552.5185,-175 1552.5185,-175"/>
<polygon fill="#000000" stroke="#000000" points="1552.5186,-171.5001 1542.5185,-175 1552.5185,-178.5001 1552.5186,-171.5001"/>
</g>
<!-- FilterAllocateDialogComponent -->
<g id="node4" class="node">
<title>FilterAllocateDialogComponent</title>
<polygon fill="#ffffb3" stroke="#000000" points="2625.6867,-122 2428.3133,-122 2428.3133,-86 2625.6867,-86 2625.6867,-122"/>
<text text-anchor="middle" x="2527" y="-99.8" font-family="Times,serif" font-size="14.00" fill="#000000">FilterAllocateDialogComponent</text>
</g>
<!-- FilterAllocateDialogComponent&#45;&gt;AdminModule -->
<g id="edge4" class="edge">
<title>FilterAllocateDialogComponent&#45;&gt;AdminModule</title>
<path fill="none" stroke="#000000" d="M2527,-122.308C2527,-142.1455 2527,-171 2527,-171 2527,-171 1552.5236,-171 1552.5236,-171"/>
<polygon fill="#000000" stroke="#000000" points="1552.5237,-167.5001 1542.5236,-171 1552.5236,-174.5001 1552.5237,-167.5001"/>
</g>
<!-- ItemAllocateDialogComponent -->
<g id="node5" class="node">
<title>ItemAllocateDialogComponent</title>
<polygon fill="#ffffb3" stroke="#000000" points="2410.014,-122 2217.986,-122 2217.986,-86 2410.014,-86 2410.014,-122"/>
<text text-anchor="middle" x="2314" y="-99.8" font-family="Times,serif" font-size="14.00" fill="#000000">ItemAllocateDialogComponent</text>
</g>
<!-- ItemAllocateDialogComponent&#45;&gt;AdminModule -->
<g id="edge5" class="edge">
<title>ItemAllocateDialogComponent&#45;&gt;AdminModule</title>
<path fill="none" stroke="#000000" d="M2314,-122.2222C2314,-140.8285 2314,-167 2314,-167 2314,-167 1552.5083,-167 1552.5083,-167"/>
<polygon fill="#000000" stroke="#000000" points="1552.5084,-163.5001 1542.5083,-167 1552.5083,-170.5001 1552.5084,-163.5001"/>
</g>
<!-- ItemCreateComponent -->
<g id="node6" class="node">
<title>ItemCreateComponent</title>
<polygon fill="#ffffb3" stroke="#000000" points="2199.5212,-122 2056.4788,-122 2056.4788,-86 2199.5212,-86 2199.5212,-122"/>
<text text-anchor="middle" x="2128" y="-99.8" font-family="Times,serif" font-size="14.00" fill="#000000">ItemCreateComponent</text>
</g>
<!-- ItemCreateComponent&#45;&gt;AdminModule -->
<g id="edge6" class="edge">
<title>ItemCreateComponent&#45;&gt;AdminModule</title>
<path fill="none" stroke="#000000" d="M2128,-122.0225C2128,-139.3734 2128,-163 2128,-163 2128,-163 1552.299,-163 1552.299,-163"/>
<polygon fill="#000000" stroke="#000000" points="1552.299,-159.5001 1542.299,-163 1552.299,-166.5001 1552.299,-159.5001"/>
</g>
<!-- ItemManageComponent -->
<g id="node7" class="node">
<title>ItemManageComponent</title>
<polygon fill="#ffffb3" stroke="#000000" points="2038.0772,-122 1885.9228,-122 1885.9228,-86 2038.0772,-86 2038.0772,-122"/>
<text text-anchor="middle" x="1962" y="-99.8" font-family="Times,serif" font-size="14.00" fill="#000000">ItemManageComponent</text>
</g>
<!-- ItemManageComponent&#45;&gt;AdminModule -->
<g id="edge7" class="edge">
<title>ItemManageComponent&#45;&gt;AdminModule</title>
<path fill="none" stroke="#000000" d="M1962,-122.0091C1962,-138.0494 1962,-159 1962,-159 1962,-159 1552.3048,-159 1552.3048,-159"/>
<polygon fill="#000000" stroke="#000000" points="1552.3048,-155.5001 1542.3048,-159 1552.3047,-162.5001 1552.3048,-155.5001"/>
</g>
<!-- LabelAllocateDialogComponent -->
<g id="node8" class="node">
<title>LabelAllocateDialogComponent</title>
<polygon fill="#ffffb3" stroke="#000000" points="1868.2296,-122 1669.7704,-122 1669.7704,-86 1868.2296,-86 1868.2296,-122"/>
<text text-anchor="middle" x="1769" y="-99.8" font-family="Times,serif" font-size="14.00" fill="#000000">LabelAllocateDialogComponent</text>
</g>
<!-- LabelAllocateDialogComponent&#45;&gt;AdminModule -->
<g id="edge8" class="edge">
<title>LabelAllocateDialogComponent&#45;&gt;AdminModule</title>
<path fill="none" stroke="#000000" d="M1769,-122.1243C1769,-136.7832 1769,-155 1769,-155 1769,-155 1552.3433,-155 1552.3433,-155"/>
<polygon fill="#000000" stroke="#000000" points="1552.3433,-151.5001 1542.3433,-155 1552.3432,-158.5001 1552.3433,-151.5001"/>
</g>
<!-- LabelCreateComponent -->
<g id="node9" class="node">
<title>LabelCreateComponent</title>
<polygon fill="#ffffb3" stroke="#000000" points="1651.7366,-122 1502.2634,-122 1502.2634,-86 1651.7366,-86 1651.7366,-122"/>
<text text-anchor="middle" x="1577" y="-99.8" font-family="Times,serif" font-size="14.00" fill="#000000">LabelCreateComponent</text>
</g>
<!-- LabelCreateComponent&#45;&gt;AdminModule -->
<g id="edge9" class="edge">
<title>LabelCreateComponent&#45;&gt;AdminModule</title>
<path fill="none" stroke="#000000" d="M1522.1753,-122.1061C1522.1753,-122.1061 1522.1753,-140.991 1522.1753,-140.991"/>
<polygon fill="#000000" stroke="#000000" points="1518.6754,-140.9909 1522.1753,-150.991 1525.6754,-140.991 1518.6754,-140.9909"/>
</g>
<!-- ScoreCreateComponent -->
<g id="node10" class="node">
<title>ScoreCreateComponent</title>
<polygon fill="#ffffb3" stroke="#000000" points="1483.7366,-122 1334.2634,-122 1334.2634,-86 1483.7366,-86 1483.7366,-122"/>
<text text-anchor="middle" x="1409" y="-99.8" font-family="Times,serif" font-size="14.00" fill="#000000">ScoreCreateComponent</text>
</g>
<!-- ScoreCreateComponent&#45;&gt;AdminModule -->
<g id="edge10" class="edge">
<title>ScoreCreateComponent&#45;&gt;AdminModule</title>
<path fill="none" stroke="#000000" d="M1463.8247,-122.1061C1463.8247,-122.1061 1463.8247,-140.991 1463.8247,-140.991"/>
<polygon fill="#000000" stroke="#000000" points="1460.3248,-140.9909 1463.8247,-150.991 1467.3248,-140.991 1460.3248,-140.9909"/>
</g>
<!-- SubjectManageComponent -->
<g id="node11" class="node">
<title>SubjectManageComponent</title>
<polygon fill="#ffffb3" stroke="#000000" points="1316.4143,-122 1147.5857,-122 1147.5857,-86 1316.4143,-86 1316.4143,-122"/>
<text text-anchor="middle" x="1232" y="-99.8" font-family="Times,serif" font-size="14.00" fill="#000000">SubjectManageComponent</text>
</g>
<!-- SubjectManageComponent&#45;&gt;AdminModule -->
<g id="edge11" class="edge">
<title>SubjectManageComponent&#45;&gt;AdminModule</title>
<path fill="none" stroke="#000000" d="M1232,-122.1243C1232,-136.7832 1232,-155 1232,-155 1232,-155 1433.6011,-155 1433.6011,-155"/>
<polygon fill="#000000" stroke="#000000" points="1433.6011,-158.5001 1443.6011,-155 1433.601,-151.5001 1433.6011,-158.5001"/>
</g>
<!-- TaxCreateComponent -->
<g id="node12" class="node">
<title>TaxCreateComponent</title>
<polygon fill="#ffffb3" stroke="#000000" points="1129.6317,-122 990.3683,-122 990.3683,-86 1129.6317,-86 1129.6317,-122"/>
<text text-anchor="middle" x="1060" y="-99.8" font-family="Times,serif" font-size="14.00" fill="#000000">TaxCreateComponent</text>
</g>
<!-- TaxCreateComponent&#45;&gt;AdminModule -->
<g id="edge12" class="edge">
<title>TaxCreateComponent&#45;&gt;AdminModule</title>
<path fill="none" stroke="#000000" d="M1060,-122.0091C1060,-138.0494 1060,-159 1060,-159 1060,-159 1433.751,-159 1433.751,-159"/>
<polygon fill="#000000" stroke="#000000" points="1433.751,-162.5001 1443.751,-159 1433.7509,-155.5001 1433.751,-162.5001"/>
</g>
<!-- TreatmentCreateComponent -->
<g id="node13" class="node">
<title>TreatmentCreateComponent</title>
<polygon fill="#ffffb3" stroke="#000000" points="971.8932,-122 796.1068,-122 796.1068,-86 971.8932,-86 971.8932,-122"/>
<text text-anchor="middle" x="884" y="-99.8" font-family="Times,serif" font-size="14.00" fill="#000000">TreatmentCreateComponent</text>
</g>
<!-- TreatmentCreateComponent&#45;&gt;AdminModule -->
<g id="edge13" class="edge">
<title>TreatmentCreateComponent&#45;&gt;AdminModule</title>
<path fill="none" stroke="#000000" d="M884,-122.0225C884,-139.3734 884,-163 884,-163 884,-163 1433.6788,-163 1433.6788,-163"/>
<polygon fill="#000000" stroke="#000000" points="1433.6789,-166.5001 1443.6788,-163 1433.6788,-159.5001 1433.6789,-166.5001"/>
</g>
<!-- TreeCreateComponent -->
<g id="node14" class="node">
<title>TreeCreateComponent</title>
<polygon fill="#ffffb3" stroke="#000000" points="778.5072,-122 635.4928,-122 635.4928,-86 778.5072,-86 778.5072,-122"/>
<text text-anchor="middle" x="707" y="-99.8" font-family="Times,serif" font-size="14.00" fill="#000000">TreeCreateComponent</text>
</g>
<!-- TreeCreateComponent&#45;&gt;AdminModule -->
<g id="edge14" class="edge">
<title>TreeCreateComponent&#45;&gt;AdminModule</title>
<path fill="none" stroke="#000000" d="M707,-122.2222C707,-140.8285 707,-167 707,-167 707,-167 1433.5344,-167 1433.5344,-167"/>
<polygon fill="#000000" stroke="#000000" points="1433.5345,-170.5001 1443.5344,-167 1433.5344,-163.5001 1433.5345,-170.5001"/>
</g>
<!-- TreeManageComponent -->
<g id="node15" class="node">
<title>TreeManageComponent</title>
<polygon fill="#ffffb3" stroke="#000000" points="617.0632,-122 464.9368,-122 464.9368,-86 617.0632,-86 617.0632,-122"/>
<text text-anchor="middle" x="541" y="-99.8" font-family="Times,serif" font-size="14.00" fill="#000000">TreeManageComponent</text>
</g>
<!-- TreeManageComponent&#45;&gt;AdminModule -->
<g id="edge15" class="edge">
<title>TreeManageComponent&#45;&gt;AdminModule</title>
<path fill="none" stroke="#000000" d="M541,-122.308C541,-142.1455 541,-171 541,-171 541,-171 1433.4894,-171 1433.4894,-171"/>
<polygon fill="#000000" stroke="#000000" points="1433.4894,-174.5001 1443.4894,-171 1433.4893,-167.5001 1433.4894,-174.5001"/>
</g>
<!-- AdminRoutingModule -->
<g id="node17" class="node">
<title>AdminRoutingModule</title>
<polygon fill="#8dd3c7" stroke="#000000" points="440.5561,-122 437.5561,-126 416.5561,-126 413.5561,-122 297.4439,-122 297.4439,-86 440.5561,-86 440.5561,-122"/>
<text text-anchor="middle" x="369" y="-99.8" font-family="Times,serif" font-size="14.00" fill="#000000">AdminRoutingModule</text>
</g>
<!-- AdminRoutingModule&#45;&gt;AdminModule -->
<g id="edge16" class="edge">
<title>AdminRoutingModule&#45;&gt;AdminModule</title>
<path fill="none" stroke="#000000" d="M369,-122.2843C369,-143.3211 369,-175 369,-175 369,-175 1433.6172,-175 1433.6172,-175"/>
<polygon fill="#000000" stroke="#000000" points="1433.6172,-178.5001 1443.6172,-175 1433.6172,-171.5001 1433.6172,-178.5001"/>
</g>
<!-- ItemService -->
<g id="node18" class="node">
<title>ItemService</title>
<ellipse fill="#fdb462" stroke="#000000" cx="215" cy="-104" rx="57.879" ry="18"/>
<text text-anchor="middle" x="215" y="-99.8" font-family="Times,serif" font-size="14.00" fill="#000000">ItemService</text>
</g>
<!-- ItemService&#45;&gt;AdminModule -->
<g id="edge17" class="edge">
<title>ItemService&#45;&gt;AdminModule</title>
<path fill="none" stroke="#000000" d="M215,-122.1554C215,-144.3519 215,-179 215,-179 215,-179 1433.684,-179 1433.684,-179"/>
<polygon fill="#000000" stroke="#000000" points="1433.684,-182.5001 1443.684,-179 1433.6839,-175.5001 1433.684,-182.5001"/>
</g>
<!-- TreeService -->
<g id="node19" class="node">
<title>TreeService</title>
<ellipse fill="#fdb462" stroke="#000000" cx="82" cy="-104" rx="57.8597" ry="18"/>
<text text-anchor="middle" x="82" y="-99.8" font-family="Times,serif" font-size="14.00" fill="#000000">TreeService</text>
</g>
<!-- TreeService&#45;&gt;AdminModule -->
<g id="edge18" class="edge">
<title>TreeService&#45;&gt;AdminModule</title>
<path fill="none" stroke="#000000" d="M82,-122.3228C82,-145.6602 82,-183 82,-183 82,-183 1433.6091,-183 1433.6091,-183"/>
<polygon fill="#000000" stroke="#000000" points="1433.6091,-186.5001 1443.6091,-183 1433.6091,-179.5001 1433.6091,-186.5001"/>
</g>
</g>
</svg>
